# xmcd
# Copyright (C) 1995-1998 Ti Kan
#
# Track frame offsets:
#       150
#       97530
#       195212
#
# Disc length: 3532 seconds
#
# Revision: 0
# Processed by: cddbd v1.5.2PL0 Copyright (c) Steve Scherf et al.
# Submitted via: CD-Transfer v1.0
#
DISCID=100dca03
DTITLE=RAFFAELLO - 
DYEAR=08
DGENRE=
TTITLE0=LATINO 1
TTITLE1=LATINO 2
TTITLE2=LATINO 3
EXTD=
EXTT0=
EXTT1=
EXTT2=
PLAYORDER=
